<?xml version="1.0" encoding="utf-8"?>
<!-- Generator: Adobe Illustrator 28.0.0, SVG Export Plug-In . SVG Version: 6.00 Build 0)  -->
<svg version="1.1" id="Layer_1" xmlns="http://www.w3.org/2000/svg" xmlns:xlink="http://www.w3.org/1999/xlink" x="0px" y="0px"
	 viewBox="0 0 200 200" style="enable-background:new 0 0 200 200;" xml:space="preserve">
<style type="text/css">
	.st0{fill:url(#SVGID_1_);}
</style>
<linearGradient id="SVGID_1_" gradientUnits="userSpaceOnUse" x1="28.1229" y1="100" x2="171.8767" y2="100">
	<stop  offset="0" style="stop-color:#FFFFFF"/>
	<stop  offset="0" style="stop-color:#231F20"/>
</linearGradient>
<path class="st0" d="M165.6,115.6H29.7c-0.9,0-1.6,0.7-1.6,1.6v11.7c0,0.9,0.7,1.6,1.6,1.6h118.2l-28.2,35.7c-0.8,1-0.1,2.5,1.2,2.5
	h14.2c1,0,1.9-0.4,2.5-1.2l33-41.8C173.8,121.6,170.8,115.6,165.6,115.6L165.6,115.6z M170.3,69.5H52.1l28.2-35.7
	c0.8-1,0.1-2.5-1.2-2.5H64.9c-1,0-1.9,0.4-2.5,1.2l-33,41.8c-3.2,4.1-0.3,10.1,4.9,10.1h135.9c0.9,0,1.6-0.7,1.6-1.6V71.1
	C171.9,70.2,171.2,69.5,170.3,69.5z"/>
</svg>
